<svg xmlns="http://www.w3.org/2000/svg" fill="none" width="200" height="200"><defs><clipPath id="prefix__a"><rect width="200" height="200" rx="0"/></clipPath></defs><g clip-path="url(#prefix__a)"><path d="M100.123 0C44.827 0 0 42.522 0 95.01c0 8.344 1.248 16.384 3.384 24.11 1.893 1.386 4.004 2.185 6.156 2.185 3.32 0 6.498-1.727 9-4.854l31.516-39.548c5.198-6.564 12.62-10.308 20.303-10.308 7.692 0 15.108 3.745 20.323 10.308l30.304 38.028 1.302 1.52c2.502 3.119 5.681 4.831 8.959 4.854 3.27-.023 6.454-1.743 8.941-4.854l1.34-1.52 30.294-38.028c5.206-6.564 12.619-10.308 20.303-10.308 1.227 0 2.451.13 3.645.304C183.138 28.155 145.097 0 100.123 0zm33.447 40.47h-.531c-.174 0-.347.007-.52.019-.174.012-.348.028-.522.047-.172.02-.338.048-.51.076-.171.029-.351.06-.52.096-.17.036-.333.079-.501.123-.167.044-.335.09-.5.142-.166.053-.328.112-.49.172a9.67 9.67 0 00-.952.408c-.155.075-.31.146-.46.228-.151.082-.304.177-.451.266a12.071 12.071 0 00-.851.57 9.72 9.72 0 00-.4.323 9.395 9.395 0 00-1.092 1.064c-.113.128-.223.258-.33.39-.105.131-.212.262-.31.398a9.742 9.742 0 00-.54.846 8.48 8.48 0 00-.242.437c-.074.149-.142.304-.209.456-.068.152-.141.3-.201.456-.06.155-.108.317-.16.475a9.855 9.855 0 00-.14.475c-.044.16-.084.322-.12.485-.035.162-.064.33-.091.494-.025.163-.051.32-.069.484-.018.165-.04.329-.04.494 0 .165-.011.338-.011.504 0 .165.011.328.011.493 0 .166.022.33.04.495.018.164.044.33.069.493.027.164.056.323.091.485a10.395 10.395 0 00.26.96c.052.157.1.32.16.474.06.156.133.304.201.456.067.153.135.308.209.457.076.148.157.291.242.437.083.145.168.286.259.427.092.141.182.281.281.418.098.137.205.277.31.408.105.132.218.254.33.38.113.127.222.26.341.38.118.122.245.237.37.352a12.099 12.099 0 00.781.656c.137.102.278.198.421.294.142.096.284.196.43.285.295.178.6.343.911.494.155.075.312.141.471.209.158.068.317.13.481.19.162.06.324.119.49.171.165.052.333.098.5.143.168.044.331.087.501.123.169.036.349.067.52.095.172.028.338.056.51.076a10.217 10.217 0 001.042.067h.531c.168 0 .333-.007.5-.02.168-.012.334-.037.501-.056.166-.02.335-.04.5-.067.166-.027.327-.06.49-.095.165-.035.329-.072.492-.114.162-.042.32-.093.48-.142.319-.1.633-.215.941-.343a9.85 9.85 0 00.461-.199c.15-.071.303-.15.45-.228.145-.075.289-.154.431-.237.286-.171.563-.355.831-.551.133-.098.261-.192.39-.295.129-.103.248-.214.371-.323.122-.109.242-.218.359-.333.118-.114.24-.231.351-.351.333-.358.638-.74.912-1.14.091-.134.184-.27.27-.409a9.66 9.66 0 00.66-1.282c.063-.148.125-.296.18-.447.056-.15.113-.303.161-.456.092-.307.173-.617.24-.93.033-.157.056-.318.08-.476.024-.157.044-.316.06-.475.016-.158.04-.315.04-.474 0-.16.01-.316.01-.475 0-.16-.01-.326-.01-.485 0-.16-.024-.316-.04-.475a9.479 9.479 0 00-.06-.475c-.024-.158-.047-.318-.08-.475-.066-.31-.146-.618-.24-.922-.048-.153-.105-.305-.161-.456a9.442 9.442 0 00-.18-.446 9.565 9.565 0 00-1.521-2.47c-.106-.124-.209-.25-.321-.37a10.13 10.13 0 00-.351-.352 10.861 10.861 0 00-.359-.333c-.123-.108-.242-.22-.371-.323a11.51 11.51 0 00-1.221-.846c-.142-.082-.286-.16-.431-.236-.148-.08-.298-.156-.45-.229a12.55 12.55 0 00-.461-.199 10.304 10.304 0 00-.941-.342c-.16-.05-.318-.1-.48-.142-.163-.042-.327-.08-.492-.114a10.344 10.344 0 00-.49-.096c-.165-.027-.334-.046-.5-.066a10.74 10.74 0 00-.501-.047c-.167-.013-.332-.029-.5-.029z" fill-rule="evenodd" fill="#38485D" style="mix-blend-mode:passthrough"/><path d="M191.884 84.874c-3.308 0-6.499 1.846-9.014 5.163l-31.539 41.717c-5.222 6.91-12.641 10.868-20.354 10.868h-.119c-7.721 0-15.14-3.958-20.353-10.868l-31.54-41.717c-2.508-3.317-5.689-5.163-9.014-5.163-3.3 0-6.523 1.846-9.013 5.163l-31.551 41.717c-5.18 6.85-12.536 10.81-20.172 10.868 16.075 33.903 50.521 57.417 90.532 57.417 55.368 0 100.258-44.88 100.258-100.247-.018-3.86-.259-7.717-.722-11.55-2.204-2.172-4.758-3.368-7.399-3.368z" fill-rule="evenodd" fill="#52B783" style="mix-blend-mode:passthrough"/></g></svg>
